solid Created by Gmsh
facet normal 0 0 1
  outer loop
    vertex -0.574025 -1.38582 0
    vertex 0.101544 -1.0134 0
    vertex -0.296357 -0.715468 0
  endloop
endfacet
facet normal 0 -0 1
  outer loop
    vertex -0.574025 -1.38582 0
    vertex -0.296357 -0.715468 0
    vertex -0.788386 -0.644781 0
  endloop
endfacet
facet normal 0 -0 1
  outer loop
    vertex 0 -1.5 0
    vertex 0.101544 -1.0134 0
    vertex -0.574025 -1.38582 0
  endloop
endfacet
facet normal -0 0 1
  outer loop
    vertex -1.06066 -1.06066 0
    vertex -0.574025 -1.38582 0
    vertex -0.788386 -0.644781 0
  endloop
endfacet
facet normal 0 0 1
  outer loop
    vertex 1.5 0 0
    vertex 0.902302 -0.368325 0
    vertex 1.38582 -0.574025 0
  endloop
endfacet
facet normal 0 0 1
  outer loop
    vertex 1.38582 -0.574025 0
    vertex 0.902302 -0.368325 0
    vertex 1.06066 -1.06066 0
  endloop
endfacet
facet normal 0 0 1
  outer loop
    vertex 1.06066 1.06066 0
    vertex 0.574025 1.38582 0
    vertex 0.507156 0.757086 0
  endloop
endfacet
facet normal 0 0 1
  outer loop
    vertex -1.06066 1.06066 0
    vertex -1.38582 0.574025 0
    vertex -0.744042 0.497153 0
  endloop
endfacet
facet normal 0 0 1
  outer loop
    vertex 1.5 0 0
    vertex 1.10679 0.208271 0
    vertex 0.902302 -0.368325 0
  endloop
endfacet
facet normal 0 0 1
  outer loop
    vertex 1.06066 -1.06066 0
    vertex 0.902302 -0.368325 0
    vertex 0.633466 -0.932199 0
  endloop
endfacet
facet normal 0 0 1
  outer loop
    vertex -0.149184 0.75 0
    vertex -0.300784 0.265277 0
    vertex 0.258735 0.317056 0
  endloop
endfacet
facet normal -0 0 1
  outer loop
    vertex -0.149184 0.75 0
    vertex 0.258735 0.317056 0
    vertex 0.507156 0.757086 0
  endloop
endfacet
facet normal 0 -0 1
  outer loop
    vertex -0.736243 -0.0258607 0
    vertex -0.300784 0.265277 0
    vertex -0.744042 0.497153 0
  endloop
endfacet
facet normal -0 0 1
  outer loop
    vertex -0.736243 -0.0258607 0
    vertex -0.333989 -0.280769 0
    vertex -0.300784 0.265277 0
  endloop
endfacet
facet normal 0 0 1
  outer loop
    vertex 0.703262 0.220729 0
    vertex 0.902302 -0.368325 0
    vertex 1.10679 0.208271 0
  endloop
endfacet
facet normal -0 0 1
  outer loop
    vertex 0.426572 -0.60372 0
    vertex 0.633466 -0.932199 0
    vertex 0.902302 -0.368325 0
  endloop
endfacet
facet normal 0 0 1
  outer loop
    vertex -1.38582 -0.574025 0
    vertex -1.06066 -1.06066 0
    vertex -0.788386 -0.644781 0
  endloop
endfacet
facet normal 0 0 1
  outer loop
    vertex 0 -1.5 0
    vertex 0.574025 -1.38582 0
    vertex 0.101544 -1.0134 0
  endloop
endfacet
facet normal 0 0 1
  outer loop
    vertex 1.06066 1.06066 0
    vertex 0.507156 0.757086 0
    vertex 0.944354 0.571627 0
  endloop
endfacet
facet normal 0 0 1
  outer loop
    vertex -1.06066 1.06066 0
    vertex -0.744042 0.497153 0
    vertex -0.568826 0.936978 0
  endloop
endfacet
facet normal 0 0 1
  outer loop
    vertex 0.574025 1.38582 0
    vertex 0.167482 1.08401 0
    vertex 0.507156 0.757086 0
  endloop
endfacet
facet normal 0 0 1
  outer loop
    vertex -1.38582 0.574025 0
    vertex -1.08998 0.169901 0
    vertex -0.744042 0.497153 0
  endloop
endfacet
facet normal 0 -0 1
  outer loop
    vertex 0.703262 0.220729 0
    vertex 0.944354 0.571627 0
    vertex 0.507156 0.757086 0
  endloop
endfacet
facet normal 0 0 1
  outer loop
    vertex -0.149184 0.75 0
    vertex 0.507156 0.757086 0
    vertex 0.167482 1.08401 0
  endloop
endfacet
facet normal 0 0 1
  outer loop
    vertex -0.149184 0.75 0
    vertex -0.568826 0.936978 0
    vertex -0.744042 0.497153 0
  endloop
endfacet
facet normal 0 0 1
  outer loop
    vertex -0.736243 -0.0258607 0
    vertex -0.744042 0.497153 0
    vertex -1.08998 0.169901 0
  endloop
endfacet
facet normal 0 0 1
  outer loop
    vertex 0.703262 0.220729 0
    vertex 0.507156 0.757086 0
    vertex 0.258735 0.317056 0
  endloop
endfacet
facet normal 0 0 1
  outer loop
    vertex -0.149184 0.75 0
    vertex -0.744042 0.497153 0
    vertex -0.300784 0.265277 0
  endloop
endfacet
facet normal 0 -0 1
  outer loop
    vertex 0.0117961 -0.0165305 0
    vertex 0.258735 0.317056 0
    vertex -0.300784 0.265277 0
  endloop
endfacet
facet normal -0 0 1
  outer loop
    vertex -1.38582 -0.574025 0
    vertex -0.788386 -0.644781 0
    vertex -1.13556 -0.224467 0
  endloop
endfacet
facet normal 0 -0 1
  outer loop
    vertex 0.574025 -1.38582 0
    vertex 0.633466 -0.932199 0
    vertex 0.101544 -1.0134 0
  endloop
endfacet
facet normal -0 0 1
  outer loop
    vertex -0.296357 -0.715468 0
    vertex 0.101544 -1.0134 0
    vertex 0.0534739 -0.463838 0
  endloop
endfacet
facet normal 0 0 1
  outer loop
    vertex 0.0117961 -0.0165305 0
    vertex -0.300784 0.265277 0
    vertex -0.333989 -0.280769 0
  endloop
endfacet
facet normal 0 0 1
  outer loop
    vertex 0 1.5 0
    vertex 0.167482 1.08401 0
    vertex 0.574025 1.38582 0
  endloop
endfacet
facet normal 0 0 1
  outer loop
    vertex -1.5 0 0
    vertex -1.08998 0.169901 0
    vertex -1.38582 0.574025 0
  endloop
endfacet
facet normal 0 0 1
  outer loop
    vertex 1.38582 0.574025 0
    vertex 1.06066 1.06066 0
    vertex 0.944354 0.571627 0
  endloop
endfacet
facet normal 0 0 1
  outer loop
    vertex -0.574025 1.38582 0
    vertex -1.06066 1.06066 0
    vertex -0.568826 0.936978 0
  endloop
endfacet
facet normal 0 0 1
  outer loop
    vertex 0.426572 -0.60372 0
    vertex 0.0534739 -0.463838 0
    vertex 0.101544 -1.0134 0
  endloop
endfacet
facet normal 0 0 1
  outer loop
    vertex -0.736243 -0.0258607 0
    vertex -0.788386 -0.644781 0
    vertex -0.333989 -0.280769 0
  endloop
endfacet
facet normal 0 0 1
  outer loop
    vertex -0.296357 -0.715468 0
    vertex -0.333989 -0.280769 0
    vertex -0.788386 -0.644781 0
  endloop
endfacet
facet normal 0 0 1
  outer loop
    vertex 1.06066 -1.06066 0
    vertex 0.633466 -0.932199 0
    vertex 0.574025 -1.38582 0
  endloop
endfacet
facet normal 0 0 1
  outer loop
    vertex 1.5 0 0
    vertex 1.38582 0.574025 0
    vertex 1.10679 0.208271 0
  endloop
endfacet
facet normal 0 0 1
  outer loop
    vertex 0 1.5 0
    vertex -0.574025 1.38582 0
    vertex -0.224911 1.13136 0
  endloop
endfacet
facet normal 0 0 1
  outer loop
    vertex -1.5 0 0
    vertex -1.38582 -0.574025 0
    vertex -1.13556 -0.224467 0
  endloop
endfacet
facet normal 0 0 1
  outer loop
    vertex 0.703262 0.220729 0
    vertex 0.411277 -0.153141 0
    vertex 0.902302 -0.368325 0
  endloop
endfacet
facet normal 0 -0 1
  outer loop
    vertex 0.426572 -0.60372 0
    vertex 0.902302 -0.368325 0
    vertex 0.411277 -0.153141 0
  endloop
endfacet
facet normal 0 0 1
  outer loop
    vertex -0.736243 -0.0258607 0
    vertex -1.13556 -0.224467 0
    vertex -0.788386 -0.644781 0
  endloop
endfacet
facet normal 0 0 1
  outer loop
    vertex 0.426572 -0.60372 0
    vertex 0.101544 -1.0134 0
    vertex 0.633466 -0.932199 0
  endloop
endfacet
facet normal 0 0 1
  outer loop
    vertex 0.703262 0.220729 0
    vertex 0.258735 0.317056 0
    vertex 0.411277 -0.153141 0
  endloop
endfacet
facet normal -0 0 1
  outer loop
    vertex 0.0117961 -0.0165305 0
    vertex 0.411277 -0.153141 0
    vertex 0.258735 0.317056 0
  endloop
endfacet
facet normal 0 -0 1
  outer loop
    vertex -0.296357 -0.715468 0
    vertex 0.0534739 -0.463838 0
    vertex -0.333989 -0.280769 0
  endloop
endfacet
facet normal 0 0 1
  outer loop
    vertex 0.0117961 -0.0165305 0
    vertex 0.0534739 -0.463838 0
    vertex 0.411277 -0.153141 0
  endloop
endfacet
facet normal 0 0 1
  outer loop
    vertex 0.426572 -0.60372 0
    vertex 0.411277 -0.153141 0
    vertex 0.0534739 -0.463838 0
  endloop
endfacet
facet normal 0 0 1
  outer loop
    vertex 0 1.5 0
    vertex -0.224911 1.13136 0
    vertex 0.167482 1.08401 0
  endloop
endfacet
facet normal -0 0 1
  outer loop
    vertex -1.5 0 0
    vertex -1.13556 -0.224467 0
    vertex -1.08998 0.169901 0
  endloop
endfacet
facet normal 0 0 1
  outer loop
    vertex 1.38582 0.574025 0
    vertex 0.944354 0.571627 0
    vertex 1.10679 0.208271 0
  endloop
endfacet
facet normal 0 0 1
  outer loop
    vertex -0.574025 1.38582 0
    vertex -0.568826 0.936978 0
    vertex -0.224911 1.13136 0
  endloop
endfacet
facet normal 0 -0 1
  outer loop
    vertex -0.149184 0.75 0
    vertex 0.167482 1.08401 0
    vertex -0.224911 1.13136 0
  endloop
endfacet
facet normal 0 0 1
  outer loop
    vertex -0.736243 -0.0258607 0
    vertex -1.08998 0.169901 0
    vertex -1.13556 -0.224467 0
  endloop
endfacet
facet normal -0 0 1
  outer loop
    vertex 0.703262 0.220729 0
    vertex 1.10679 0.208271 0
    vertex 0.944354 0.571627 0
  endloop
endfacet
facet normal 0 0 1
  outer loop
    vertex -0.149184 0.75 0
    vertex -0.224911 1.13136 0
    vertex -0.568826 0.936978 0
  endloop
endfacet
facet normal 0 0 1
  outer loop
    vertex 0.0117961 -0.0165305 0
    vertex -0.333989 -0.280769 0
    vertex 0.0534739 -0.463838 0
  endloop
endfacet
facet normal 0 0 1
  outer loop
    vertex -0.574025 -1.38582 5
    vertex 0.101544 -1.0134 5
    vertex -0.296357 -0.715468 5
  endloop
endfacet
facet normal 0 -0 1
  outer loop
    vertex -0.574025 -1.38582 5
    vertex -0.296357 -0.715468 5
    vertex -0.788386 -0.644781 5
  endloop
endfacet
facet normal 0 -0 1
  outer loop
    vertex 0 -1.5 5
    vertex 0.101544 -1.0134 5
    vertex -0.574025 -1.38582 5
  endloop
endfacet
facet normal -0 0 1
  outer loop
    vertex -1.06066 -1.06066 5
    vertex -0.574025 -1.38582 5
    vertex -0.788386 -0.644781 5
  endloop
endfacet
facet normal 0 0 1
  outer loop
    vertex 1.5 0 5
    vertex 0.902302 -0.368325 5
    vertex 1.38582 -0.574025 5
  endloop
endfacet
facet normal 0 0 1
  outer loop
    vertex 1.38582 -0.574025 5
    vertex 0.902302 -0.368325 5
    vertex 1.06066 -1.06066 5
  endloop
endfacet
facet normal 0 0 1
  outer loop
    vertex 1.06066 1.06066 5
    vertex 0.574025 1.38582 5
    vertex 0.507156 0.757086 5
  endloop
endfacet
facet normal 0 0 1
  outer loop
    vertex -1.06066 1.06066 5
    vertex -1.38582 0.574025 5
    vertex -0.744042 0.497153 5
  endloop
endfacet
facet normal 0 0 1
  outer loop
    vertex 1.5 0 5
    vertex 1.10679 0.208271 5
    vertex 0.902302 -0.368325 5
  endloop
endfacet
facet normal 0 0 1
  outer loop
    vertex 1.06066 -1.06066 5
    vertex 0.902302 -0.368325 5
    vertex 0.633466 -0.932199 5
  endloop
endfacet
facet normal 0 0 1
  outer loop
    vertex -0.149184 0.75 5
    vertex -0.300784 0.265277 5
    vertex 0.258735 0.317056 5
  endloop
endfacet
facet normal -0 0 1
  outer loop
    vertex -0.149184 0.75 5
    vertex 0.258735 0.317056 5
    vertex 0.507156 0.757086 5
  endloop
endfacet
facet normal 0 -0 1
  outer loop
    vertex -0.736243 -0.0258607 5
    vertex -0.300784 0.265277 5
    vertex -0.744042 0.497153 5
  endloop
endfacet
facet normal -0 0 1
  outer loop
    vertex -0.736243 -0.0258607 5
    vertex -0.333989 -0.280769 5
    vertex -0.300784 0.265277 5
  endloop
endfacet
facet normal 0 0 1
  outer loop
    vertex 0.703262 0.220729 5
    vertex 0.902302 -0.368325 5
    vertex 1.10679 0.208271 5
  endloop
endfacet
facet normal -0 0 1
  outer loop
    vertex 0.426572 -0.60372 5
    vertex 0.633466 -0.932199 5
    vertex 0.902302 -0.368325 5
  endloop
endfacet
facet normal 0 0 1
  outer loop
    vertex -1.38582 -0.574025 5
    vertex -1.06066 -1.06066 5
    vertex -0.788386 -0.644781 5
  endloop
endfacet
facet normal 0 0 1
  outer loop
    vertex 0 -1.5 5
    vertex 0.574025 -1.38582 5
    vertex 0.101544 -1.0134 5
  endloop
endfacet
facet normal 0 0 1
  outer loop
    vertex 1.06066 1.06066 5
    vertex 0.507156 0.757086 5
    vertex 0.944354 0.571627 5
  endloop
endfacet
facet normal 0 0 1
  outer loop
    vertex -1.06066 1.06066 5
    vertex -0.744042 0.497153 5
    vertex -0.568826 0.936978 5
  endloop
endfacet
facet normal 0 0 1
  outer loop
    vertex 0.574025 1.38582 5
    vertex 0.167482 1.08401 5
    vertex 0.507156 0.757086 5
  endloop
endfacet
facet normal 0 0 1
  outer loop
    vertex -1.38582 0.574025 5
    vertex -1.08998 0.169901 5
    vertex -0.744042 0.497153 5
  endloop
endfacet
facet normal 0 -0 1
  outer loop
    vertex 0.703262 0.220729 5
    vertex 0.944354 0.571627 5
    vertex 0.507156 0.757086 5
  endloop
endfacet
facet normal 0 0 1
  outer loop
    vertex -0.149184 0.75 5
    vertex 0.507156 0.757086 5
    vertex 0.167482 1.08401 5
  endloop
endfacet
facet normal 0 0 1
  outer loop
    vertex -0.149184 0.75 5
    vertex -0.568826 0.936978 5
    vertex -0.744042 0.497153 5
  endloop
endfacet
facet normal 0 0 1
  outer loop
    vertex -0.736243 -0.0258607 5
    vertex -0.744042 0.497153 5
    vertex -1.08998 0.169901 5
  endloop
endfacet
facet normal 0 -0 1
  outer loop
    vertex 0.0117961 -0.0165305 5
    vertex 0.258735 0.317056 5
    vertex -0.300784 0.265277 5
  endloop
endfacet
facet normal 0 0 1
  outer loop
    vertex 0.703262 0.220729 5
    vertex 0.507156 0.757086 5
    vertex 0.258735 0.317056 5
  endloop
endfacet
facet normal 0 0 1
  outer loop
    vertex -0.149184 0.75 5
    vertex -0.744042 0.497153 5
    vertex -0.300784 0.265277 5
  endloop
endfacet
facet normal -0 0 1
  outer loop
    vertex -1.38582 -0.574025 5
    vertex -0.788386 -0.644781 5
    vertex -1.13556 -0.224467 5
  endloop
endfacet
facet normal 0 -0 1
  outer loop
    vertex 0.574025 -1.38582 5
    vertex 0.633466 -0.932199 5
    vertex 0.101544 -1.0134 5
  endloop
endfacet
facet normal -0 0 1
  outer loop
    vertex -0.296357 -0.715468 5
    vertex 0.101544 -1.0134 5
    vertex 0.0534739 -0.463838 5
  endloop
endfacet
facet normal 0 0 1
  outer loop
    vertex 0.0117961 -0.0165305 5
    vertex -0.300784 0.265277 5
    vertex -0.333989 -0.280769 5
  endloop
endfacet
facet normal 0 0 1
  outer loop
    vertex 0 1.5 5
    vertex 0.167482 1.08401 5
    vertex 0.574025 1.38582 5
  endloop
endfacet
facet normal 0 0 1
  outer loop
    vertex -1.5 0 5
    vertex -1.08998 0.169901 5
    vertex -1.38582 0.574025 5
  endloop
endfacet
facet normal 0 0 1
  outer loop
    vertex 1.38582 0.574025 5
    vertex 1.06066 1.06066 5
    vertex 0.944354 0.571627 5
  endloop
endfacet
facet normal 0 0 1
  outer loop
    vertex -0.574025 1.38582 5
    vertex -1.06066 1.06066 5
    vertex -0.568826 0.936978 5
  endloop
endfacet
facet normal 0 0 1
  outer loop
    vertex 0.426572 -0.60372 5
    vertex 0.0534739 -0.463838 5
    vertex 0.101544 -1.0134 5
  endloop
endfacet
facet normal 0 0 1
  outer loop
    vertex -0.736243 -0.0258607 5
    vertex -0.788386 -0.644781 5
    vertex -0.333989 -0.280769 5
  endloop
endfacet
facet normal 0 0 1
  outer loop
    vertex -0.296357 -0.715468 5
    vertex -0.333989 -0.280769 5
    vertex -0.788386 -0.644781 5
  endloop
endfacet
facet normal 0 0 1
  outer loop
    vertex 1.06066 -1.06066 5
    vertex 0.633466 -0.932199 5
    vertex 0.574025 -1.38582 5
  endloop
endfacet
facet normal 0 0 1
  outer loop
    vertex 1.5 0 5
    vertex 1.38582 0.574025 5
    vertex 1.10679 0.208271 5
  endloop
endfacet
facet normal 0 0 1
  outer loop
    vertex 0 1.5 5
    vertex -0.574025 1.38582 5
    vertex -0.224911 1.13136 5
  endloop
endfacet
facet normal 0 0 1
  outer loop
    vertex -1.5 0 5
    vertex -1.38582 -0.574025 5
    vertex -1.13556 -0.224467 5
  endloop
endfacet
facet normal 0 0 1
  outer loop
    vertex 0.703262 0.220729 5
    vertex 0.411277 -0.153141 5
    vertex 0.902302 -0.368325 5
  endloop
endfacet
facet normal 0 -0 1
  outer loop
    vertex 0.426572 -0.60372 5
    vertex 0.902302 -0.368325 5
    vertex 0.411277 -0.153141 5
  endloop
endfacet
facet normal 0 0 1
  outer loop
    vertex -0.736243 -0.0258607 5
    vertex -1.13556 -0.224467 5
    vertex -0.788386 -0.644781 5
  endloop
endfacet
facet normal 0 0 1
  outer loop
    vertex 0.426572 -0.60372 5
    vertex 0.101544 -1.0134 5
    vertex 0.633466 -0.932199 5
  endloop
endfacet
facet normal 0 0 1
  outer loop
    vertex 0.703262 0.220729 5
    vertex 0.258735 0.317056 5
    vertex 0.411277 -0.153141 5
  endloop
endfacet
facet normal -0 0 1
  outer loop
    vertex 0.0117961 -0.0165305 5
    vertex 0.411277 -0.153141 5
    vertex 0.258735 0.317056 5
  endloop
endfacet
facet normal 0 -0 1
  outer loop
    vertex -0.296357 -0.715468 5
    vertex 0.0534739 -0.463838 5
    vertex -0.333989 -0.280769 5
  endloop
endfacet
facet normal 0 0 1
  outer loop
    vertex 0.0117961 -0.0165305 5
    vertex 0.0534739 -0.463838 5
    vertex 0.411277 -0.153141 5
  endloop
endfacet
facet normal 0 0 1
  outer loop
    vertex 0.426572 -0.60372 5
    vertex 0.411277 -0.153141 5
    vertex 0.0534739 -0.463838 5
  endloop
endfacet
facet normal 0 -0 1
  outer loop
    vertex -0.149184 0.75 5
    vertex 0.167482 1.08401 5
    vertex -0.224911 1.13136 5
  endloop
endfacet
facet normal 0 0 1
  outer loop
    vertex -0.736243 -0.0258607 5
    vertex -1.08998 0.169901 5
    vertex -1.13556 -0.224467 5
  endloop
endfacet
facet normal 0 0 1
  outer loop
    vertex 0 1.5 5
    vertex -0.224911 1.13136 5
    vertex 0.167482 1.08401 5
  endloop
endfacet
facet normal -0 0 1
  outer loop
    vertex -1.5 0 5
    vertex -1.13556 -0.224467 5
    vertex -1.08998 0.169901 5
  endloop
endfacet
facet normal -0 0 1
  outer loop
    vertex 0.703262 0.220729 5
    vertex 1.10679 0.208271 5
    vertex 0.944354 0.571627 5
  endloop
endfacet
facet normal 0 0 1
  outer loop
    vertex -0.149184 0.75 5
    vertex -0.224911 1.13136 5
    vertex -0.568826 0.936978 5
  endloop
endfacet
facet normal 0 0 1
  outer loop
    vertex 1.38582 0.574025 5
    vertex 0.944354 0.571627 5
    vertex 1.10679 0.208271 5
  endloop
endfacet
facet normal 0 0 1
  outer loop
    vertex -0.574025 1.38582 5
    vertex -0.568826 0.936978 5
    vertex -0.224911 1.13136 5
  endloop
endfacet
facet normal 0 0 1
  outer loop
    vertex 0.0117961 -0.0165305 5
    vertex -0.333989 -0.280769 5
    vertex 0.0534739 -0.463838 5
  endloop
endfacet
facet normal 0.524447 -0.847776 0.0789364
  outer loop
    vertex 1.08891 -1.03164 1.10677
    vertex 0.499761 -1.4143 0.911275
    vertex 0.814564 -1.25956 0.481659
  endloop
endfacet
facet normal 0.859843 -0.508562 0.0451135
  outer loop
    vertex 1.42631 -0.464366 1.07083
    vertex 1.08891 -1.03164 1.10677
    vertex 1.38371 -0.579093 0.5895
  endloop
endfacet
facet normal 0.8019 -0.596138 0.0397101
  outer loop
    vertex 0.963177 -1.14991 4.43125
    vertex 1.33963 -0.674821 3.96128
    vertex 1.38833 -0.56792 4.58268
  endloop
endfacet
facet normal 0.169019 -0.985613 0
  outer loop
    vertex 0 -1.5 0.625
    vertex 0.499761 -1.4143 0.911275
    vertex 0 -1.5 1.25
  endloop
endfacet
facet normal 0.167707 -0.985837 0
  outer loop
    vertex 0.495995 -1.41562 4.0891
    vertex 0 -1.5 4.375
    vertex 0 -1.5 3.75
  endloop
endfacet
facet normal 0.987642 -0.156725 0
  outer loop
    vertex 1.42631 -0.464366 1.07083
    vertex 1.5 0 0.625
    vertex 1.5 0 1.25
  endloop
endfacet
facet normal 0.980101 -0.194341 -0.0404258
  outer loop
    vertex 1.38371 -0.579093 0.5895
    vertex 1.5 0 0.625
    vertex 1.42631 -0.464366 1.07083
  endloop
endfacet
facet normal 0.972905 -0.231205 0
  outer loop
    vertex 1.5 0 4.375
    vertex 1.33963 -0.674821 3.96128
    vertex 1.5 0 3.75
  endloop
endfacet
facet normal 0.977447 -0.207171 -0.0409631
  outer loop
    vertex 1.5 0 4.375
    vertex 1.38833 -0.56792 4.58268
    vertex 1.33963 -0.674821 3.96128
  endloop
endfacet
facet normal 0.830425 -0.554872 -0.0501096
  outer loop
    vertex 1.16265 -0.947756 0.440011
    vertex 1.06066 -1.06066 0
    vertex 1.38582 -0.574025 0
  endloop
endfacet
facet normal 0.857877 -0.513854 -0.00134691
  outer loop
    vertex 1.38371 -0.579093 0.5895
    vertex 1.16265 -0.947756 0.440011
    vertex 1.38582 -0.574025 0
  endloop
endfacet
facet normal 0.981132 -0.193341 0
  outer loop
    vertex 1.38786 -0.56908 2.29654
    vertex 1.5 0 1.875
    vertex 1.5 0 2.5
  endloop
endfacet
facet normal 0.981953 -0.18903 0.00603935
  outer loop
    vertex 1.39606 -0.548652 1.60238
    vertex 1.5 0 1.875
    vertex 1.38786 -0.56908 2.29654
  endloop
endfacet
facet normal 0.836766 -0.547525 -0.0062261
  outer loop
    vertex 1.06915 -1.0521 1.94045
    vertex 1.39606 -0.548652 1.60238
    vertex 1.38786 -0.56908 2.29654
  endloop
endfacet
facet normal 0.193963 -0.981009 0
  outer loop
    vertex 0 -1.5 1.875
    vertex 0.570839 -1.38713 2.30735
    vertex 0 -1.5 2.5
  endloop
endfacet
facet normal 0.193925 -0.981016 5.3072e-05
  outer loop
    vertex 0 -1.5 1.875
    vertex 0.57066 -1.38721 1.60063
    vertex 0.570839 -1.38713 2.30735
  endloop
endfacet
facet normal 0.557926 -0.829891 -5.47817e-05
  outer loop
    vertex 0.57066 -1.38721 1.60063
    vertex 1.06915 -1.0521 1.94045
    vertex 0.570839 -1.38713 2.30735
  endloop
endfacet
facet normal 0.986087 -0.166228 0
  outer loop
    vertex 1.5 0 3.75
    vertex 1.4171 -0.491747 3.12472
    vertex 1.5 0 3.125
  endloop
endfacet
facet normal 0.974937 -0.218383 0.0424945
  outer loop
    vertex 1.5 0 3.75
    vertex 1.33963 -0.674821 3.96128
    vertex 1.4171 -0.491747 3.12472
  endloop
endfacet
facet normal 0.831507 -0.553754 -0.0441805
  outer loop
    vertex 1.4171 -0.491747 3.12472
    vertex 1.33963 -0.674821 3.96128
    vertex 1.03379 -1.08686 3.36968
  endloop
endfacet
facet normal 0.557137 -0.830421 -0.00044661
  outer loop
    vertex 0.5722 -1.38657 2.96243
    vertex 0.570839 -1.38713 2.30735
    vertex 1.06638 -1.0549 2.74642
  endloop
endfacet
facet normal 0.986087 -0.166228 0
  outer loop
    vertex 1.4171 -0.491747 3.12472
    vertex 1.5 0 2.5
    vertex 1.5 0 3.125
  endloop
endfacet
facet normal 0.982134 -0.187395 -0.0171857
  outer loop
    vertex 1.38786 -0.56908 2.29654
    vertex 1.5 0 2.5
    vertex 1.4171 -0.491747 3.12472
  endloop
endfacet
facet normal 0.842422 -0.538427 0.0205268
  outer loop
    vertex 1.38786 -0.56908 2.29654
    vertex 1.4171 -0.491747 3.12472
    vertex 1.06638 -1.0549 2.74642
  endloop
endfacet
facet normal 0.982524 -0.186137 0
  outer loop
    vertex 1.39606 -0.548652 1.60238
    vertex 1.5 0 1.25
    vertex 1.5 0 1.875
  endloop
endfacet
facet normal 0.98539 -0.167743 0.0294833
  outer loop
    vertex 1.42631 -0.464366 1.07083
    vertex 1.5 0 1.25
    vertex 1.39606 -0.548652 1.60238
  endloop
endfacet
facet normal 0.840708 -0.541449 0.00663411
  outer loop
    vertex 1.39606 -0.548652 1.60238
    vertex 1.06915 -1.0521 1.94045
    vertex 1.08891 -1.03164 1.10677
  endloop
endfacet
facet normal 0.85811 -0.512442 -0.0324182
  outer loop
    vertex 1.08891 -1.03164 1.10677
    vertex 1.42631 -0.464366 1.07083
    vertex 1.39606 -0.548652 1.60238
  endloop
endfacet
facet normal 0.1939 -0.981021 0
  outer loop
    vertex 0 -1.5 1.25
    vertex 0.57066 -1.38721 1.60063
    vertex 0 -1.5 1.875
  endloop
endfacet
facet normal 0.182077 -0.983083 0.0199058
  outer loop
    vertex 0 -1.5 1.25
    vertex 0.499761 -1.4143 0.911275
    vertex 0.57066 -1.38721 1.60063
  endloop
endfacet
facet normal 0.561175 -0.827667 -0.00701468
  outer loop
    vertex 1.06915 -1.0521 1.94045
    vertex 0.57066 -1.38721 1.60063
    vertex 1.08891 -1.03164 1.10677
  endloop
endfacet
facet normal 0.550082 -0.834772 -0.0237707
  outer loop
    vertex 0.499761 -1.4143 0.911275
    vertex 1.08891 -1.03164 1.10677
    vertex 0.57066 -1.38721 1.60063
  endloop
endfacet
facet normal 0.852147 -0.522525 0.0285108
  outer loop
    vertex 1.08891 -1.03164 1.10677
    vertex 1.16265 -0.947756 0.440011
    vertex 1.38371 -0.579093 0.5895
  endloop
endfacet
facet normal 0.665737 -0.745912 -0.020211
  outer loop
    vertex 1.16265 -0.947756 0.440011
    vertex 1.08891 -1.03164 1.10677
    vertex 0.814564 -1.25956 0.481659
  endloop
endfacet
facet normal 0.980781 -0.195089 0.00305249
  outer loop
    vertex 1.38833 -0.56792 4.58268
    vertex 1.5 0 5
    vertex 1.38582 -0.574025 5
  endloop
endfacet
facet normal 0.981212 -0.192931 0
  outer loop
    vertex 1.5 0 4.375
    vertex 1.5 0 5
    vertex 1.38833 -0.56792 4.58268
  endloop
endfacet
facet normal 0.976396 -0.194217 -0.0944997
  outer loop
    vertex 1.47091 -0.293981 0.303625
    vertex 1.38582 -0.574025 0
    vertex 1.5 0 0
  endloop
endfacet
facet normal 0.974722 -0.201638 0.0962199
  outer loop
    vertex 1.47091 -0.293981 0.303625
    vertex 1.5 0 0.625
    vertex 1.38371 -0.579093 0.5895
  endloop
endfacet
facet normal 0.99514 -0.0984724 0
  outer loop
    vertex 1.5 0 0.625
    vertex 1.47091 -0.293981 0.303625
    vertex 1.5 0 0
  endloop
endfacet
facet normal 0.95653 -0.291632 0.0009167
  outer loop
    vertex 1.38582 -0.574025 0
    vertex 1.47091 -0.293981 0.303625
    vertex 1.38371 -0.579093 0.5895
  endloop
endfacet
facet normal 0.55459 -0.830002 -0.0593842
  outer loop
    vertex 1.06066 -1.06066 0
    vertex 0.814564 -1.25956 0.481659
    vertex 0.574025 -1.38582 0
  endloop
endfacet
facet normal 0.669144 -0.742291 0.0353649
  outer loop
    vertex 0.814564 -1.25956 0.481659
    vertex 1.06066 -1.06066 0
    vertex 1.16265 -0.947756 0.440011
  endloop
endfacet
facet normal 0.834358 -0.551223 0.00094576
  outer loop
    vertex 1.38786 -0.56908 2.29654
    vertex 1.06638 -1.0549 2.74642
    vertex 1.06915 -1.0521 1.94045
  endloop
endfacet
facet normal 0.557459 -0.830204 -0.000974283
  outer loop
    vertex 1.06638 -1.0549 2.74642
    vertex 0.570839 -1.38713 2.30735
    vertex 1.06915 -1.0521 1.94045
  endloop
endfacet
facet normal 0.831466 -0.555568 -0.00312079
  outer loop
    vertex 1.06066 -1.06066 5
    vertex 1.38833 -0.56792 4.58268
    vertex 1.38582 -0.574025 5
  endloop
endfacet
facet normal 0.812471 -0.581016 -0.0480833
  outer loop
    vertex 1.06066 -1.06066 5
    vertex 0.963177 -1.14991 4.43125
    vertex 1.38833 -0.56792 4.58268
  endloop
endfacet
facet normal 0.553055 -0.833031 -0.0137939
  outer loop
    vertex 1.06638 -1.0549 2.74642
    vertex 1.03379 -1.08686 3.36968
    vertex 0.5722 -1.38657 2.96243
  endloop
endfacet
facet normal 0.843687 -0.536579 0.0166032
  outer loop
    vertex 1.03379 -1.08686 3.36968
    vertex 1.06638 -1.0549 2.74642
    vertex 1.4171 -0.491747 3.12472
  endloop
endfacet
facet normal 0.194105 -0.980981 0.000436703
  outer loop
    vertex 0.5722 -1.38657 2.96243
    vertex 0 -1.5 2.5
    vertex 0.570839 -1.38713 2.30735
  endloop
endfacet
facet normal 0.194445 -0.980913 0
  outer loop
    vertex 0 -1.5 2.5
    vertex 0.5722 -1.38657 2.96243
    vertex 0 -1.5 3.125
  endloop
endfacet
facet normal 0.177781 -0.983953 -0.0152035
  outer loop
    vertex 0.541135 -1.39899 3.54046
    vertex 0.495995 -1.41562 4.0891
    vertex 0 -1.5 3.75
  endloop
endfacet
facet normal 0.537824 -0.842988 0.0107969
  outer loop
    vertex 0.541135 -1.39899 3.54046
    vertex 0.5722 -1.38657 2.96243
    vertex 1.03379 -1.08686 3.36968
  endloop
endfacet
facet normal 0.183494 -0.983021 0
  outer loop
    vertex 0 -1.5 3.125
    vertex 0.541135 -1.39899 3.54046
    vertex 0 -1.5 3.75
  endloop
endfacet
facet normal 0.191483 -0.981437 -0.0107904
  outer loop
    vertex 0 -1.5 3.125
    vertex 0.5722 -1.38657 2.96243
    vertex 0.541135 -1.39899 3.54046
  endloop
endfacet
facet normal 0.194834 -0.979495 0.0512827
  outer loop
    vertex 0.422671 -1.43922 4.55511
    vertex 0.574025 -1.38582 5
    vertex 0 -1.5 5
  endloop
endfacet
facet normal 0.14234 -0.989818 0
  outer loop
    vertex 0 -1.5 4.375
    vertex 0.422671 -1.43922 4.55511
    vertex 0 -1.5 5
  endloop
endfacet
facet normal 0.477129 -0.8783 0.0306032
  outer loop
    vertex 0.422671 -1.43922 4.55511
    vertex 0.495995 -1.41562 4.0891
    vertex 0.963177 -1.14991 4.43125
  endloop
endfacet
facet normal 0.153108 -0.987869 -0.0259273
  outer loop
    vertex 0.495995 -1.41562 4.0891
    vertex 0.422671 -1.43922 4.55511
    vertex 0 -1.5 4.375
  endloop
endfacet
facet normal 0.555225 -0.830954 0.0352286
  outer loop
    vertex 0.574025 -1.38582 5
    vertex 0.963177 -1.14991 4.43125
    vertex 1.06066 -1.06066 5
  endloop
endfacet
facet normal 0.462189 -0.885315 -0.0509773
  outer loop
    vertex 0.963177 -1.14991 4.43125
    vertex 0.574025 -1.38582 5
    vertex 0.422671 -1.43922 4.55511
  endloop
endfacet
facet normal 0.483084 -0.875342 0.0201754
  outer loop
    vertex 0.912046 -1.19087 3.87836
    vertex 0.963177 -1.14991 4.43125
    vertex 0.495995 -1.41562 4.0891
  endloop
endfacet
facet normal 0.764882 -0.642086 0.0517837
  outer loop
    vertex 0.912046 -1.19087 3.87836
    vertex 1.03379 -1.08686 3.36968
    vertex 1.33963 -0.674821 3.96128
  endloop
endfacet
facet normal 0.771706 -0.635516 -0.0242838
  outer loop
    vertex 0.963177 -1.14991 4.43125
    vertex 0.912046 -1.19087 3.87836
    vertex 1.33963 -0.674821 3.96128
  endloop
endfacet
facet normal 0.480311 -0.877003 0.0129298
  outer loop
    vertex 0.541135 -1.39899 3.54046
    vertex 0.912046 -1.19087 3.87836
    vertex 0.495995 -1.41562 4.0891
  endloop
endfacet
facet normal 0.522356 -0.851316 -0.0490453
  outer loop
    vertex 0.541135 -1.39899 3.54046
    vertex 1.03379 -1.08686 3.36968
    vertex 0.912046 -1.19087 3.87836
  endloop
endfacet
facet normal 0.194697 -0.978809 -0.0634536
  outer loop
    vertex 0.574025 -1.38582 0
    vertex 0.387483 -1.44909 0.403587
    vertex 0 -1.5 0
  endloop
endfacet
facet normal 0.130271 -0.991478 0
  outer loop
    vertex 0.387483 -1.44909 0.403587
    vertex 0 -1.5 0.625
    vertex 0 -1.5 0
  endloop
endfacet
facet normal 0.399047 -0.916021 0.0408421
  outer loop
    vertex 0.387483 -1.44909 0.403587
    vertex 0.574025 -1.38582 0
    vertex 0.814564 -1.25956 0.481659
  endloop
endfacet
facet normal 0.149618 -0.988137 0.0346254
  outer loop
    vertex 0.387483 -1.44909 0.403587
    vertex 0.499761 -1.4143 0.911275
    vertex 0 -1.5 0.625
  endloop
endfacet
facet normal 0.409765 -0.911757 -0.0281421
  outer loop
    vertex 0.814564 -1.25956 0.481659
    vertex 0.499761 -1.4143 0.911275
    vertex 0.387483 -1.44909 0.403587
  endloop
endfacet
facet normal -0.524447 -0.847776 0.0789364
  outer loop
    vertex -0.499761 -1.4143 0.911275
    vertex -1.08891 -1.03164 1.10677
    vertex -0.814564 -1.25956 0.481659
  endloop
endfacet
facet normal -0.859843 -0.508562 0.0451135
  outer loop
    vertex -1.08891 -1.03164 1.10677
    vertex -1.42631 -0.464366 1.07083
    vertex -1.38371 -0.579093 0.5895
  endloop
endfacet
facet normal -0.8019 -0.596138 0.0397101
  outer loop
    vertex -1.33963 -0.674821 3.96128
    vertex -0.963177 -1.14991 4.43125
    vertex -1.38833 -0.56792 4.58268
  endloop
endfacet
facet normal -0.169019 -0.985613 0
  outer loop
    vertex -0.499761 -1.4143 0.911275
    vertex 0 -1.5 0.625
    vertex 0 -1.5 1.25
  endloop
endfacet
facet normal -0.167707 -0.985837 -0
  outer loop
    vertex 0 -1.5 4.375
    vertex -0.495995 -1.41562 4.0891
    vertex 0 -1.5 3.75
  endloop
endfacet
facet normal -0.987642 -0.156725 0
  outer loop
    vertex -1.5 0 0.625
    vertex -1.42631 -0.464366 1.07083
    vertex -1.5 0 1.25
  endloop
endfacet
facet normal -0.980101 -0.194341 -0.0404258
  outer loop
    vertex -1.5 0 0.625
    vertex -1.38371 -0.579093 0.5895
    vertex -1.42631 -0.464366 1.07083
  endloop
endfacet
facet normal -0.972905 -0.231205 0
  outer loop
    vertex -1.33963 -0.674821 3.96128
    vertex -1.5 0 4.375
    vertex -1.5 0 3.75
  endloop
endfacet
facet normal -0.977447 -0.207171 -0.0409631
  outer loop
    vertex -1.38833 -0.56792 4.58268
    vertex -1.5 0 4.375
    vertex -1.33963 -0.674821 3.96128
  endloop
endfacet
facet normal -0.830425 -0.554872 -0.0501096
  outer loop
    vertex -1.06066 -1.06066 0
    vertex -1.16265 -0.947756 0.440011
    vertex -1.38582 -0.574025 0
  endloop
endfacet
facet normal -0.857877 -0.513854 -0.00134691
  outer loop
    vertex -1.16265 -0.947756 0.440011
    vertex -1.38371 -0.579093 0.5895
    vertex -1.38582 -0.574025 0
  endloop
endfacet
facet normal -0.981132 -0.193341 0
  outer loop
    vertex -1.5 0 1.875
    vertex -1.38786 -0.56908 2.29654
    vertex -1.5 0 2.5
  endloop
endfacet
facet normal -0.981953 -0.18903 0.00603935
  outer loop
    vertex -1.5 0 1.875
    vertex -1.39606 -0.548652 1.60238
    vertex -1.38786 -0.56908 2.29654
  endloop
endfacet
facet normal -0.836766 -0.547525 -0.0062261
  outer loop
    vertex -1.39606 -0.548652 1.60238
    vertex -1.06915 -1.0521 1.94045
    vertex -1.38786 -0.56908 2.29654
  endloop
endfacet
facet normal -0.193963 -0.981009 0
  outer loop
    vertex -0.570839 -1.38713 2.30735
    vertex 0 -1.5 1.875
    vertex 0 -1.5 2.5
  endloop
endfacet
facet normal -0.193925 -0.981016 5.3072e-05
  outer loop
    vertex -0.57066 -1.38721 1.60063
    vertex 0 -1.5 1.875
    vertex -0.570839 -1.38713 2.30735
  endloop
endfacet
facet normal -0.557926 -0.829891 -5.47817e-05
  outer loop
    vertex -1.06915 -1.0521 1.94045
    vertex -0.57066 -1.38721 1.60063
    vertex -0.570839 -1.38713 2.30735
  endloop
endfacet
facet normal -0.986087 -0.166228 0
  outer loop
    vertex -1.4171 -0.491747 3.12472
    vertex -1.5 0 3.75
    vertex -1.5 0 3.125
  endloop
endfacet
facet normal -0.974937 -0.218383 0.0424945
  outer loop
    vertex -1.33963 -0.674821 3.96128
    vertex -1.5 0 3.75
    vertex -1.4171 -0.491747 3.12472
  endloop
endfacet
facet normal -0.831507 -0.553754 -0.0441805
  outer loop
    vertex -1.33963 -0.674821 3.96128
    vertex -1.4171 -0.491747 3.12472
    vertex -1.03379 -1.08686 3.36968
  endloop
endfacet
facet normal -0.557137 -0.830421 -0.00044661
  outer loop
    vertex -0.570839 -1.38713 2.30735
    vertex -0.5722 -1.38657 2.96243
    vertex -1.06638 -1.0549 2.74642
  endloop
endfacet
facet normal -0.986087 -0.166228 0
  outer loop
    vertex -1.5 0 2.5
    vertex -1.4171 -0.491747 3.12472
    vertex -1.5 0 3.125
  endloop
endfacet
facet normal -0.982134 -0.187395 -0.0171857
  outer loop
    vertex -1.5 0 2.5
    vertex -1.38786 -0.56908 2.29654
    vertex -1.4171 -0.491747 3.12472
  endloop
endfacet
facet normal -0.842422 -0.538427 0.0205268
  outer loop
    vertex -1.4171 -0.491747 3.12472
    vertex -1.38786 -0.56908 2.29654
    vertex -1.06638 -1.0549 2.74642
  endloop
endfacet
facet normal -0.982524 -0.186137 0
  outer loop
    vertex -1.5 0 1.25
    vertex -1.39606 -0.548652 1.60238
    vertex -1.5 0 1.875
  endloop
endfacet
facet normal -0.98539 -0.167743 0.0294833
  outer loop
    vertex -1.5 0 1.25
    vertex -1.42631 -0.464366 1.07083
    vertex -1.39606 -0.548652 1.60238
  endloop
endfacet
facet normal -0.840708 -0.541449 0.00663411
  outer loop
    vertex -1.06915 -1.0521 1.94045
    vertex -1.39606 -0.548652 1.60238
    vertex -1.08891 -1.03164 1.10677
  endloop
endfacet
facet normal -0.85811 -0.512442 -0.0324182
  outer loop
    vertex -1.42631 -0.464366 1.07083
    vertex -1.08891 -1.03164 1.10677
    vertex -1.39606 -0.548652 1.60238
  endloop
endfacet
facet normal -0.1939 -0.981021 0
  outer loop
    vertex -0.57066 -1.38721 1.60063
    vertex 0 -1.5 1.25
    vertex 0 -1.5 1.875
  endloop
endfacet
facet normal -0.182077 -0.983083 0.0199058
  outer loop
    vertex -0.499761 -1.4143 0.911275
    vertex 0 -1.5 1.25
    vertex -0.57066 -1.38721 1.60063
  endloop
endfacet
facet normal -0.561175 -0.827667 -0.00701468
  outer loop
    vertex -0.57066 -1.38721 1.60063
    vertex -1.06915 -1.0521 1.94045
    vertex -1.08891 -1.03164 1.10677
  endloop
endfacet
facet normal -0.550082 -0.834772 -0.0237707
  outer loop
    vertex -1.08891 -1.03164 1.10677
    vertex -0.499761 -1.4143 0.911275
    vertex -0.57066 -1.38721 1.60063
  endloop
endfacet
facet normal -0.852147 -0.522525 0.0285108
  outer loop
    vertex -1.16265 -0.947756 0.440011
    vertex -1.08891 -1.03164 1.10677
    vertex -1.38371 -0.579093 0.5895
  endloop
endfacet
facet normal -0.665737 -0.745912 -0.020211
  outer loop
    vertex -1.08891 -1.03164 1.10677
    vertex -1.16265 -0.947756 0.440011
    vertex -0.814564 -1.25956 0.481659
  endloop
endfacet
facet normal -0.980781 -0.195089 0.00305249
  outer loop
    vertex -1.5 0 5
    vertex -1.38833 -0.56792 4.58268
    vertex -1.38582 -0.574025 5
  endloop
endfacet
facet normal -0.981212 -0.192931 -0
  outer loop
    vertex -1.5 0 5
    vertex -1.5 0 4.375
    vertex -1.38833 -0.56792 4.58268
  endloop
endfacet
facet normal -0.976396 -0.194217 -0.0944997
  outer loop
    vertex -1.38582 -0.574025 0
    vertex -1.47091 -0.293981 0.303625
    vertex -1.5 0 0
  endloop
endfacet
facet normal -0.974722 -0.201638 0.0962199
  outer loop
    vertex -1.5 0 0.625
    vertex -1.47091 -0.293981 0.303625
    vertex -1.38371 -0.579093 0.5895
  endloop
endfacet
facet normal -0.99514 -0.0984724 0
  outer loop
    vertex -1.47091 -0.293981 0.303625
    vertex -1.5 0 0.625
    vertex -1.5 0 0
  endloop
endfacet
facet normal -0.95653 -0.291632 0.0009167
  outer loop
    vertex -1.47091 -0.293981 0.303625
    vertex -1.38582 -0.574025 0
    vertex -1.38371 -0.579093 0.5895
  endloop
endfacet
facet normal -0.55459 -0.830002 -0.0593842
  outer loop
    vertex -0.814564 -1.25956 0.481659
    vertex -1.06066 -1.06066 0
    vertex -0.574025 -1.38582 0
  endloop
endfacet
facet normal -0.669144 -0.742291 0.0353649
  outer loop
    vertex -1.06066 -1.06066 0
    vertex -0.814564 -1.25956 0.481659
    vertex -1.16265 -0.947756 0.440011
  endloop
endfacet
facet normal -0.834358 -0.551223 0.00094576
  outer loop
    vertex -1.06638 -1.0549 2.74642
    vertex -1.38786 -0.56908 2.29654
    vertex -1.06915 -1.0521 1.94045
  endloop
endfacet
facet normal -0.557459 -0.830204 -0.000974283
  outer loop
    vertex -0.570839 -1.38713 2.30735
    vertex -1.06638 -1.0549 2.74642
    vertex -1.06915 -1.0521 1.94045
  endloop
endfacet
facet normal -0.831466 -0.555568 -0.00312079
  outer loop
    vertex -1.38833 -0.56792 4.58268
    vertex -1.06066 -1.06066 5
    vertex -1.38582 -0.574025 5
  endloop
endfacet
facet normal -0.812471 -0.581016 -0.0480833
  outer loop
    vertex -0.963177 -1.14991 4.43125
    vertex -1.06066 -1.06066 5
    vertex -1.38833 -0.56792 4.58268
  endloop
endfacet
facet normal -0.553055 -0.833031 -0.0137939
  outer loop
    vertex -1.03379 -1.08686 3.36968
    vertex -1.06638 -1.0549 2.74642
    vertex -0.5722 -1.38657 2.96243
  endloop
endfacet
facet normal -0.843687 -0.536579 0.0166032
  outer loop
    vertex -1.06638 -1.0549 2.74642
    vertex -1.03379 -1.08686 3.36968
    vertex -1.4171 -0.491747 3.12472
  endloop
endfacet
facet normal -0.194105 -0.980981 0.000436703
  outer loop
    vertex 0 -1.5 2.5
    vertex -0.5722 -1.38657 2.96243
    vertex -0.570839 -1.38713 2.30735
  endloop
endfacet
facet normal -0.194445 -0.980913 0
  outer loop
    vertex -0.5722 -1.38657 2.96243
    vertex 0 -1.5 2.5
    vertex 0 -1.5 3.125
  endloop
endfacet
facet normal -0.177781 -0.983953 -0.0152035
  outer loop
    vertex -0.495995 -1.41562 4.0891
    vertex -0.541135 -1.39899 3.54046
    vertex 0 -1.5 3.75
  endloop
endfacet
facet normal -0.537824 -0.842988 0.0107969
  outer loop
    vertex -0.5722 -1.38657 2.96243
    vertex -0.541135 -1.39899 3.54046
    vertex -1.03379 -1.08686 3.36968
  endloop
endfacet
facet normal -0.183494 -0.983021 0
  outer loop
    vertex -0.541135 -1.39899 3.54046
    vertex 0 -1.5 3.125
    vertex 0 -1.5 3.75
  endloop
endfacet
facet normal -0.191483 -0.981437 -0.0107904
  outer loop
    vertex -0.5722 -1.38657 2.96243
    vertex 0 -1.5 3.125
    vertex -0.541135 -1.39899 3.54046
  endloop
endfacet
facet normal -0.194834 -0.979495 0.0512827
  outer loop
    vertex -0.574025 -1.38582 5
    vertex -0.422671 -1.43922 4.55511
    vertex 0 -1.5 5
  endloop
endfacet
facet normal -0.14234 -0.989818 0
  outer loop
    vertex -0.422671 -1.43922 4.55511
    vertex 0 -1.5 4.375
    vertex 0 -1.5 5
  endloop
endfacet
facet normal -0.477129 -0.8783 0.0306032
  outer loop
    vertex -0.495995 -1.41562 4.0891
    vertex -0.422671 -1.43922 4.55511
    vertex -0.963177 -1.14991 4.43125
  endloop
endfacet
facet normal -0.153108 -0.987869 -0.0259273
  outer loop
    vertex -0.422671 -1.43922 4.55511
    vertex -0.495995 -1.41562 4.0891
    vertex 0 -1.5 4.375
  endloop
endfacet
facet normal -0.555225 -0.830954 0.0352286
  outer loop
    vertex -0.963177 -1.14991 4.43125
    vertex -0.574025 -1.38582 5
    vertex -1.06066 -1.06066 5
  endloop
endfacet
facet normal -0.462189 -0.885315 -0.0509773
  outer loop
    vertex -0.574025 -1.38582 5
    vertex -0.963177 -1.14991 4.43125
    vertex -0.422671 -1.43922 4.55511
  endloop
endfacet
facet normal -0.483084 -0.875342 0.0201754
  outer loop
    vertex -0.963177 -1.14991 4.43125
    vertex -0.912046 -1.19087 3.87836
    vertex -0.495995 -1.41562 4.0891
  endloop
endfacet
facet normal -0.764882 -0.642086 0.0517837
  outer loop
    vertex -1.03379 -1.08686 3.36968
    vertex -0.912046 -1.19087 3.87836
    vertex -1.33963 -0.674821 3.96128
  endloop
endfacet
facet normal -0.771706 -0.635516 -0.0242838
  outer loop
    vertex -0.912046 -1.19087 3.87836
    vertex -0.963177 -1.14991 4.43125
    vertex -1.33963 -0.674821 3.96128
  endloop
endfacet
facet normal -0.480311 -0.877003 0.0129298
  outer loop
    vertex -0.912046 -1.19087 3.87836
    vertex -0.541135 -1.39899 3.54046
    vertex -0.495995 -1.41562 4.0891
  endloop
endfacet
facet normal -0.522356 -0.851316 -0.0490453
  outer loop
    vertex -1.03379 -1.08686 3.36968
    vertex -0.541135 -1.39899 3.54046
    vertex -0.912046 -1.19087 3.87836
  endloop
endfacet
facet normal -0.194697 -0.978809 -0.0634536
  outer loop
    vertex -0.387483 -1.44909 0.403587
    vertex -0.574025 -1.38582 0
    vertex 0 -1.5 0
  endloop
endfacet
facet normal -0.130271 -0.991478 -0
  outer loop
    vertex 0 -1.5 0.625
    vertex -0.387483 -1.44909 0.403587
    vertex 0 -1.5 0
  endloop
endfacet
facet normal -0.399047 -0.916021 0.0408421
  outer loop
    vertex -0.574025 -1.38582 0
    vertex -0.387483 -1.44909 0.403587
    vertex -0.814564 -1.25956 0.481659
  endloop
endfacet
facet normal -0.149618 -0.988137 0.0346254
  outer loop
    vertex -0.499761 -1.4143 0.911275
    vertex -0.387483 -1.44909 0.403587
    vertex 0 -1.5 0.625
  endloop
endfacet
facet normal -0.409765 -0.911757 -0.0281421
  outer loop
    vertex -0.499761 -1.4143 0.911275
    vertex -0.814564 -1.25956 0.481659
    vertex -0.387483 -1.44909 0.403587
  endloop
endfacet
facet normal -0.847776 0.524447 0.0789364
  outer loop
    vertex -1.4143 0.499761 0.911275
    vertex -1.03164 1.08891 1.10677
    vertex -1.25956 0.814564 0.481659
  endloop
endfacet
facet normal -0.508562 0.859843 0.0451135
  outer loop
    vertex -1.03164 1.08891 1.10677
    vertex -0.464366 1.42631 1.07083
    vertex -0.579093 1.38371 0.5895
  endloop
endfacet
facet normal -0.596138 0.8019 0.0397101
  outer loop
    vertex -0.674821 1.33963 3.96128
    vertex -1.14991 0.963177 4.43125
    vertex -0.56792 1.38833 4.58268
  endloop
endfacet
facet normal -0.985613 0.169019 0
  outer loop
    vertex -1.4143 0.499761 0.911275
    vertex -1.5 0 0.625
    vertex -1.5 0 1.25
  endloop
endfacet
facet normal -0.985837 0.167707 0
  outer loop
    vertex -1.5 0 4.375
    vertex -1.41562 0.495995 4.0891
    vertex -1.5 0 3.75
  endloop
endfacet
facet normal -0.156725 0.987642 0
  outer loop
    vertex 0 1.5 0.625
    vertex -0.464366 1.42631 1.07083
    vertex 0 1.5 1.25
  endloop
endfacet
facet normal -0.194341 0.980101 -0.0404258
  outer loop
    vertex 0 1.5 0.625
    vertex -0.579093 1.38371 0.5895
    vertex -0.464366 1.42631 1.07083
  endloop
endfacet
facet normal -0.231205 0.972905 0
  outer loop
    vertex -0.674821 1.33963 3.96128
    vertex 0 1.5 4.375
    vertex 0 1.5 3.75
  endloop
endfacet
facet normal -0.207171 0.977447 -0.0409631
  outer loop
    vertex -0.56792 1.38833 4.58268
    vertex 0 1.5 4.375
    vertex -0.674821 1.33963 3.96128
  endloop
endfacet
facet normal -0.554872 0.830425 -0.0501096
  outer loop
    vertex -1.06066 1.06066 0
    vertex -0.947756 1.16265 0.440011
    vertex -0.574025 1.38582 0
  endloop
endfacet
facet normal -0.513854 0.857877 -0.00134691
  outer loop
    vertex -0.947756 1.16265 0.440011
    vertex -0.579093 1.38371 0.5895
    vertex -0.574025 1.38582 0
  endloop
endfacet
facet normal -0.193341 0.981132 0
  outer loop
    vertex 0 1.5 1.875
    vertex -0.56908 1.38786 2.29654
    vertex 0 1.5 2.5
  endloop
endfacet
facet normal -0.18903 0.981953 0.00603935
  outer loop
    vertex 0 1.5 1.875
    vertex -0.548652 1.39606 1.60238
    vertex -0.56908 1.38786 2.29654
  endloop
endfacet
facet normal -0.547525 0.836766 -0.0062261
  outer loop
    vertex -0.548652 1.39606 1.60238
    vertex -1.0521 1.06915 1.94045
    vertex -0.56908 1.38786 2.29654
  endloop
endfacet
facet normal -0.981009 0.193963 0
  outer loop
    vertex -1.38713 0.570839 2.30735
    vertex -1.5 0 1.875
    vertex -1.5 0 2.5
  endloop
endfacet
facet normal -0.981016 0.193925 5.3072e-05
  outer loop
    vertex -1.38721 0.57066 1.60063
    vertex -1.5 0 1.875
    vertex -1.38713 0.570839 2.30735
  endloop
endfacet
facet normal -0.829891 0.557926 -5.47817e-05
  outer loop
    vertex -1.0521 1.06915 1.94045
    vertex -1.38721 0.57066 1.60063
    vertex -1.38713 0.570839 2.30735
  endloop
endfacet
facet normal -0.830421 0.557137 -0.00044661
  outer loop
    vertex -1.38713 0.570839 2.30735
    vertex -1.38657 0.5722 2.96243
    vertex -1.0549 1.06638 2.74642
  endloop
endfacet
facet normal -0.166228 0.986087 0
  outer loop
    vertex -0.491747 1.4171 3.12472
    vertex 0 1.5 3.75
    vertex 0 1.5 3.125
  endloop
endfacet
facet normal -0.218383 0.974937 0.0424945
  outer loop
    vertex -0.674821 1.33963 3.96128
    vertex 0 1.5 3.75
    vertex -0.491747 1.4171 3.12472
  endloop
endfacet
facet normal -0.553754 0.831507 -0.0441805
  outer loop
    vertex -0.674821 1.33963 3.96128
    vertex -0.491747 1.4171 3.12472
    vertex -1.08686 1.03379 3.36968
  endloop
endfacet
facet normal -0.166228 0.986087 0
  outer loop
    vertex 0 1.5 2.5
    vertex -0.491747 1.4171 3.12472
    vertex 0 1.5 3.125
  endloop
endfacet
facet normal -0.187395 0.982134 -0.0171857
  outer loop
    vertex 0 1.5 2.5
    vertex -0.56908 1.38786 2.29654
    vertex -0.491747 1.4171 3.12472
  endloop
endfacet
facet normal -0.538427 0.842422 0.0205268
  outer loop
    vertex -0.491747 1.4171 3.12472
    vertex -0.56908 1.38786 2.29654
    vertex -1.0549 1.06638 2.74642
  endloop
endfacet
facet normal -0.981021 0.1939 0
  outer loop
    vertex -1.38721 0.57066 1.60063
    vertex -1.5 0 1.25
    vertex -1.5 0 1.875
  endloop
endfacet
facet normal -0.983083 0.182077 0.0199058
  outer loop
    vertex -1.4143 0.499761 0.911275
    vertex -1.5 0 1.25
    vertex -1.38721 0.57066 1.60063
  endloop
endfacet
facet normal -0.827667 0.561175 -0.00701468
  outer loop
    vertex -1.38721 0.57066 1.60063
    vertex -1.0521 1.06915 1.94045
    vertex -1.03164 1.08891 1.10677
  endloop
endfacet
facet normal -0.834772 0.550082 -0.0237707
  outer loop
    vertex -1.03164 1.08891 1.10677
    vertex -1.4143 0.499761 0.911275
    vertex -1.38721 0.57066 1.60063
  endloop
endfacet
facet normal -0.186137 0.982524 0
  outer loop
    vertex 0 1.5 1.25
    vertex -0.548652 1.39606 1.60238
    vertex 0 1.5 1.875
  endloop
endfacet
facet normal -0.167743 0.98539 0.0294833
  outer loop
    vertex 0 1.5 1.25
    vertex -0.464366 1.42631 1.07083
    vertex -0.548652 1.39606 1.60238
  endloop
endfacet
facet normal -0.541449 0.840708 0.00663411
  outer loop
    vertex -1.0521 1.06915 1.94045
    vertex -0.548652 1.39606 1.60238
    vertex -1.03164 1.08891 1.10677
  endloop
endfacet
facet normal -0.512442 0.85811 -0.0324182
  outer loop
    vertex -0.464366 1.42631 1.07083
    vertex -1.03164 1.08891 1.10677
    vertex -0.548652 1.39606 1.60238
  endloop
endfacet
facet normal -0.522525 0.852147 0.0285108
  outer loop
    vertex -0.947756 1.16265 0.440011
    vertex -1.03164 1.08891 1.10677
    vertex -0.579093 1.38371 0.5895
  endloop
endfacet
facet normal -0.745912 0.665737 -0.020211
  outer loop
    vertex -1.03164 1.08891 1.10677
    vertex -0.947756 1.16265 0.440011
    vertex -1.25956 0.814564 0.481659
  endloop
endfacet
facet normal -0.195089 0.980781 0.00305249
  outer loop
    vertex 0 1.5 5
    vertex -0.56792 1.38833 4.58268
    vertex -0.574025 1.38582 5
  endloop
endfacet
facet normal -0.192931 0.981212 0
  outer loop
    vertex 0 1.5 5
    vertex 0 1.5 4.375
    vertex -0.56792 1.38833 4.58268
  endloop
endfacet
facet normal -0.194217 0.976396 -0.0944997
  outer loop
    vertex -0.574025 1.38582 0
    vertex -0.293981 1.47091 0.303625
    vertex 0 1.5 0
  endloop
endfacet
facet normal -0.201638 0.974722 0.0962199
  outer loop
    vertex 0 1.5 0.625
    vertex -0.293981 1.47091 0.303625
    vertex -0.579093 1.38371 0.5895
  endloop
endfacet
facet normal -0.0984724 0.99514 0
  outer loop
    vertex -0.293981 1.47091 0.303625
    vertex 0 1.5 0.625
    vertex 0 1.5 0
  endloop
endfacet
facet normal -0.291632 0.95653 0.0009167
  outer loop
    vertex -0.293981 1.47091 0.303625
    vertex -0.574025 1.38582 0
    vertex -0.579093 1.38371 0.5895
  endloop
endfacet
facet normal -0.830002 0.55459 -0.0593842
  outer loop
    vertex -1.25956 0.814564 0.481659
    vertex -1.06066 1.06066 0
    vertex -1.38582 0.574025 0
  endloop
endfacet
facet normal -0.742291 0.669144 0.0353649
  outer loop
    vertex -1.06066 1.06066 0
    vertex -1.25956 0.814564 0.481659
    vertex -0.947756 1.16265 0.440011
  endloop
endfacet
facet normal -0.551223 0.834358 0.00094576
  outer loop
    vertex -1.0549 1.06638 2.74642
    vertex -0.56908 1.38786 2.29654
    vertex -1.0521 1.06915 1.94045
  endloop
endfacet
facet normal -0.830204 0.557459 -0.000974283
  outer loop
    vertex -1.38713 0.570839 2.30735
    vertex -1.0549 1.06638 2.74642
    vertex -1.0521 1.06915 1.94045
  endloop
endfacet
facet normal -0.555568 0.831466 -0.00312079
  outer loop
    vertex -0.56792 1.38833 4.58268
    vertex -1.06066 1.06066 5
    vertex -0.574025 1.38582 5
  endloop
endfacet
facet normal -0.581016 0.812471 -0.0480833
  outer loop
    vertex -1.14991 0.963177 4.43125
    vertex -1.06066 1.06066 5
    vertex -0.56792 1.38833 4.58268
  endloop
endfacet
facet normal -0.833031 0.553055 -0.0137939
  outer loop
    vertex -1.08686 1.03379 3.36968
    vertex -1.0549 1.06638 2.74642
    vertex -1.38657 0.5722 2.96243
  endloop
endfacet
facet normal -0.536579 0.843687 0.0166032
  outer loop
    vertex -1.0549 1.06638 2.74642
    vertex -1.08686 1.03379 3.36968
    vertex -0.491747 1.4171 3.12472
  endloop
endfacet
facet normal -0.980981 0.194105 0.000436703
  outer loop
    vertex -1.5 0 2.5
    vertex -1.38657 0.5722 2.96243
    vertex -1.38713 0.570839 2.30735
  endloop
endfacet
facet normal -0.980913 0.194445 0
  outer loop
    vertex -1.38657 0.5722 2.96243
    vertex -1.5 0 2.5
    vertex -1.5 0 3.125
  endloop
endfacet
facet normal -0.983953 0.177781 -0.0152035
  outer loop
    vertex -1.41562 0.495995 4.0891
    vertex -1.39899 0.541135 3.54046
    vertex -1.5 0 3.75
  endloop
endfacet
facet normal -0.842988 0.537824 0.0107969
  outer loop
    vertex -1.38657 0.5722 2.96243
    vertex -1.39899 0.541135 3.54046
    vertex -1.08686 1.03379 3.36968
  endloop
endfacet
facet normal -0.983021 0.183494 0
  outer loop
    vertex -1.39899 0.541135 3.54046
    vertex -1.5 0 3.125
    vertex -1.5 0 3.75
  endloop
endfacet
facet normal -0.981437 0.191483 -0.0107904
  outer loop
    vertex -1.38657 0.5722 2.96243
    vertex -1.5 0 3.125
    vertex -1.39899 0.541135 3.54046
  endloop
endfacet
facet normal -0.979495 0.194834 0.0512827
  outer loop
    vertex -1.38582 0.574025 5
    vertex -1.43922 0.422671 4.55511
    vertex -1.5 0 5
  endloop
endfacet
facet normal -0.989818 0.14234 0
  outer loop
    vertex -1.43922 0.422671 4.55511
    vertex -1.5 0 4.375
    vertex -1.5 0 5
  endloop
endfacet
facet normal -0.8783 0.477129 0.0306032
  outer loop
    vertex -1.41562 0.495995 4.0891
    vertex -1.43922 0.422671 4.55511
    vertex -1.14991 0.963177 4.43125
  endloop
endfacet
facet normal -0.987869 0.153108 -0.0259273
  outer loop
    vertex -1.43922 0.422671 4.55511
    vertex -1.41562 0.495995 4.0891
    vertex -1.5 0 4.375
  endloop
endfacet
facet normal -0.830954 0.555225 0.0352286
  outer loop
    vertex -1.14991 0.963177 4.43125
    vertex -1.38582 0.574025 5
    vertex -1.06066 1.06066 5
  endloop
endfacet
facet normal -0.885315 0.462189 -0.0509773
  outer loop
    vertex -1.38582 0.574025 5
    vertex -1.14991 0.963177 4.43125
    vertex -1.43922 0.422671 4.55511
  endloop
endfacet
facet normal -0.875342 0.483084 0.0201754
  outer loop
    vertex -1.14991 0.963177 4.43125
    vertex -1.19087 0.912046 3.87836
    vertex -1.41562 0.495995 4.0891
  endloop
endfacet
facet normal -0.642086 0.764882 0.0517837
  outer loop
    vertex -1.08686 1.03379 3.36968
    vertex -1.19087 0.912046 3.87836
    vertex -0.674821 1.33963 3.96128
  endloop
endfacet
facet normal -0.635516 0.771706 -0.0242838
  outer loop
    vertex -1.19087 0.912046 3.87836
    vertex -1.14991 0.963177 4.43125
    vertex -0.674821 1.33963 3.96128
  endloop
endfacet
facet normal -0.877003 0.480311 0.0129298
  outer loop
    vertex -1.19087 0.912046 3.87836
    vertex -1.39899 0.541135 3.54046
    vertex -1.41562 0.495995 4.0891
  endloop
endfacet
facet normal -0.851316 0.522356 -0.0490453
  outer loop
    vertex -1.08686 1.03379 3.36968
    vertex -1.39899 0.541135 3.54046
    vertex -1.19087 0.912046 3.87836
  endloop
endfacet
facet normal -0.978809 0.194697 -0.0634536
  outer loop
    vertex -1.44909 0.387483 0.403587
    vertex -1.38582 0.574025 0
    vertex -1.5 0 0
  endloop
endfacet
facet normal -0.991478 0.130271 0
  outer loop
    vertex -1.5 0 0.625
    vertex -1.44909 0.387483 0.403587
    vertex -1.5 0 0
  endloop
endfacet
facet normal -0.916021 0.399047 0.0408421
  outer loop
    vertex -1.38582 0.574025 0
    vertex -1.44909 0.387483 0.403587
    vertex -1.25956 0.814564 0.481659
  endloop
endfacet
facet normal -0.988137 0.149618 0.0346254
  outer loop
    vertex -1.4143 0.499761 0.911275
    vertex -1.44909 0.387483 0.403587
    vertex -1.5 0 0.625
  endloop
endfacet
facet normal -0.911757 0.409765 -0.0281421
  outer loop
    vertex -1.4143 0.499761 0.911275
    vertex -1.25956 0.814564 0.481659
    vertex -1.44909 0.387483 0.403587
  endloop
endfacet
facet normal 0.524447 0.847776 0.0789364
  outer loop
    vertex 0.499761 1.4143 0.911275
    vertex 1.08891 1.03164 1.10677
    vertex 0.814564 1.25956 0.481659
  endloop
endfacet
facet normal 0.859843 0.508562 0.0451135
  outer loop
    vertex 1.08891 1.03164 1.10677
    vertex 1.42631 0.464366 1.07083
    vertex 1.38371 0.579093 0.5895
  endloop
endfacet
facet normal 0.8019 0.596138 0.0397101
  outer loop
    vertex 1.33963 0.674821 3.96128
    vertex 0.963177 1.14991 4.43125
    vertex 1.38833 0.56792 4.58268
  endloop
endfacet
facet normal 0.169019 0.985613 0
  outer loop
    vertex 0.499761 1.4143 0.911275
    vertex 0 1.5 0.625
    vertex 0 1.5 1.25
  endloop
endfacet
facet normal 0.167707 0.985837 0
  outer loop
    vertex 0 1.5 4.375
    vertex 0.495995 1.41562 4.0891
    vertex 0 1.5 3.75
  endloop
endfacet
facet normal 0.987642 0.156725 -0
  outer loop
    vertex 1.5 0 0.625
    vertex 1.42631 0.464366 1.07083
    vertex 1.5 0 1.25
  endloop
endfacet
facet normal 0.980101 0.194341 -0.0404258
  outer loop
    vertex 1.5 0 0.625
    vertex 1.38371 0.579093 0.5895
    vertex 1.42631 0.464366 1.07083
  endloop
endfacet
facet normal 0.972905 0.231205 0
  outer loop
    vertex 1.33963 0.674821 3.96128
    vertex 1.5 0 4.375
    vertex 1.5 0 3.75
  endloop
endfacet
facet normal 0.977447 0.207171 -0.0409631
  outer loop
    vertex 1.38833 0.56792 4.58268
    vertex 1.5 0 4.375
    vertex 1.33963 0.674821 3.96128
  endloop
endfacet
facet normal 0.830425 0.554872 -0.0501096
  outer loop
    vertex 1.06066 1.06066 0
    vertex 1.16265 0.947756 0.440011
    vertex 1.38582 0.574025 0
  endloop
endfacet
facet normal 0.857877 0.513854 -0.00134691
  outer loop
    vertex 1.16265 0.947756 0.440011
    vertex 1.38371 0.579093 0.5895
    vertex 1.38582 0.574025 0
  endloop
endfacet
facet normal 0.193963 0.981009 0
  outer loop
    vertex 0.570839 1.38713 2.30735
    vertex 0 1.5 1.875
    vertex 0 1.5 2.5
  endloop
endfacet
facet normal 0.193925 0.981016 5.3072e-05
  outer loop
    vertex 0.57066 1.38721 1.60063
    vertex 0 1.5 1.875
    vertex 0.570839 1.38713 2.30735
  endloop
endfacet
facet normal 0.557926 0.829891 -5.47817e-05
  outer loop
    vertex 1.06915 1.0521 1.94045
    vertex 0.57066 1.38721 1.60063
    vertex 0.570839 1.38713 2.30735
  endloop
endfacet
facet normal 0.981132 0.193341 -0
  outer loop
    vertex 1.5 0 1.875
    vertex 1.38786 0.56908 2.29654
    vertex 1.5 0 2.5
  endloop
endfacet
facet normal 0.981953 0.18903 0.00603935
  outer loop
    vertex 1.5 0 1.875
    vertex 1.39606 0.548652 1.60238
    vertex 1.38786 0.56908 2.29654
  endloop
endfacet
facet normal 0.836766 0.547525 -0.0062261
  outer loop
    vertex 1.39606 0.548652 1.60238
    vertex 1.06915 1.0521 1.94045
    vertex 1.38786 0.56908 2.29654
  endloop
endfacet
facet normal 0.557137 0.830421 -0.00044661
  outer loop
    vertex 0.570839 1.38713 2.30735
    vertex 0.5722 1.38657 2.96243
    vertex 1.06638 1.0549 2.74642
  endloop
endfacet
facet normal 0.986087 0.166228 0
  outer loop
    vertex 1.4171 0.491747 3.12472
    vertex 1.5 0 3.75
    vertex 1.5 0 3.125
  endloop
endfacet
facet normal 0.974937 0.218383 0.0424945
  outer loop
    vertex 1.33963 0.674821 3.96128
    vertex 1.5 0 3.75
    vertex 1.4171 0.491747 3.12472
  endloop
endfacet
facet normal 0.831507 0.553754 -0.0441805
  outer loop
    vertex 1.33963 0.674821 3.96128
    vertex 1.4171 0.491747 3.12472
    vertex 1.03379 1.08686 3.36968
  endloop
endfacet
facet normal 0.986087 0.166228 -0
  outer loop
    vertex 1.5 0 2.5
    vertex 1.4171 0.491747 3.12472
    vertex 1.5 0 3.125
  endloop
endfacet
facet normal 0.982134 0.187395 -0.0171857
  outer loop
    vertex 1.5 0 2.5
    vertex 1.38786 0.56908 2.29654
    vertex 1.4171 0.491747 3.12472
  endloop
endfacet
facet normal 0.842422 0.538427 0.0205268
  outer loop
    vertex 1.4171 0.491747 3.12472
    vertex 1.38786 0.56908 2.29654
    vertex 1.06638 1.0549 2.74642
  endloop
endfacet
facet normal 0.1939 0.981021 0
  outer loop
    vertex 0.57066 1.38721 1.60063
    vertex 0 1.5 1.25
    vertex 0 1.5 1.875
  endloop
endfacet
facet normal 0.182077 0.983083 0.0199058
  outer loop
    vertex 0.499761 1.4143 0.911275
    vertex 0 1.5 1.25
    vertex 0.57066 1.38721 1.60063
  endloop
endfacet
facet normal 0.561175 0.827667 -0.00701468
  outer loop
    vertex 0.57066 1.38721 1.60063
    vertex 1.06915 1.0521 1.94045
    vertex 1.08891 1.03164 1.10677
  endloop
endfacet
facet normal 0.550082 0.834772 -0.0237707
  outer loop
    vertex 1.08891 1.03164 1.10677
    vertex 0.499761 1.4143 0.911275
    vertex 0.57066 1.38721 1.60063
  endloop
endfacet
facet normal 0.982524 0.186137 -0
  outer loop
    vertex 1.5 0 1.25
    vertex 1.39606 0.548652 1.60238
    vertex 1.5 0 1.875
  endloop
endfacet
facet normal 0.98539 0.167743 0.0294833
  outer loop
    vertex 1.5 0 1.25
    vertex 1.42631 0.464366 1.07083
    vertex 1.39606 0.548652 1.60238
  endloop
endfacet
facet normal 0.840708 0.541449 0.00663411
  outer loop
    vertex 1.06915 1.0521 1.94045
    vertex 1.39606 0.548652 1.60238
    vertex 1.08891 1.03164 1.10677
  endloop
endfacet
facet normal 0.85811 0.512442 -0.0324182
  outer loop
    vertex 1.42631 0.464366 1.07083
    vertex 1.08891 1.03164 1.10677
    vertex 1.39606 0.548652 1.60238
  endloop
endfacet
facet normal 0.852147 0.522525 0.0285108
  outer loop
    vertex 1.16265 0.947756 0.440011
    vertex 1.08891 1.03164 1.10677
    vertex 1.38371 0.579093 0.5895
  endloop
endfacet
facet normal 0.665737 0.745912 -0.020211
  outer loop
    vertex 1.08891 1.03164 1.10677
    vertex 1.16265 0.947756 0.440011
    vertex 0.814564 1.25956 0.481659
  endloop
endfacet
facet normal 0.980781 0.195089 0.00305249
  outer loop
    vertex 1.5 0 5
    vertex 1.38833 0.56792 4.58268
    vertex 1.38582 0.574025 5
  endloop
endfacet
facet normal 0.981212 0.192931 0
  outer loop
    vertex 1.5 0 5
    vertex 1.5 0 4.375
    vertex 1.38833 0.56792 4.58268
  endloop
endfacet
facet normal 0.976396 0.194217 -0.0944997
  outer loop
    vertex 1.38582 0.574025 0
    vertex 1.47091 0.293981 0.303625
    vertex 1.5 0 0
  endloop
endfacet
facet normal 0.974722 0.201638 0.0962199
  outer loop
    vertex 1.5 0 0.625
    vertex 1.47091 0.293981 0.303625
    vertex 1.38371 0.579093 0.5895
  endloop
endfacet
facet normal 0.99514 0.0984724 0
  outer loop
    vertex 1.47091 0.293981 0.303625
    vertex 1.5 0 0.625
    vertex 1.5 0 0
  endloop
endfacet
facet normal 0.95653 0.291632 0.0009167
  outer loop
    vertex 1.47091 0.293981 0.303625
    vertex 1.38582 0.574025 0
    vertex 1.38371 0.579093 0.5895
  endloop
endfacet
facet normal 0.55459 0.830002 -0.0593842
  outer loop
    vertex 0.814564 1.25956 0.481659
    vertex 1.06066 1.06066 0
    vertex 0.574025 1.38582 0
  endloop
endfacet
facet normal 0.669144 0.742291 0.0353649
  outer loop
    vertex 1.06066 1.06066 0
    vertex 0.814564 1.25956 0.481659
    vertex 1.16265 0.947756 0.440011
  endloop
endfacet
facet normal 0.557459 0.830204 -0.000974283
  outer loop
    vertex 0.570839 1.38713 2.30735
    vertex 1.06638 1.0549 2.74642
    vertex 1.06915 1.0521 1.94045
  endloop
endfacet
facet normal 0.834358 0.551223 0.00094576
  outer loop
    vertex 1.06638 1.0549 2.74642
    vertex 1.38786 0.56908 2.29654
    vertex 1.06915 1.0521 1.94045
  endloop
endfacet
facet normal 0.831466 0.555568 -0.00312079
  outer loop
    vertex 1.38833 0.56792 4.58268
    vertex 1.06066 1.06066 5
    vertex 1.38582 0.574025 5
  endloop
endfacet
facet normal 0.812471 0.581016 -0.0480833
  outer loop
    vertex 0.963177 1.14991 4.43125
    vertex 1.06066 1.06066 5
    vertex 1.38833 0.56792 4.58268
  endloop
endfacet
facet normal 0.553055 0.833031 -0.0137939
  outer loop
    vertex 1.03379 1.08686 3.36968
    vertex 1.06638 1.0549 2.74642
    vertex 0.5722 1.38657 2.96243
  endloop
endfacet
facet normal 0.843687 0.536579 0.0166032
  outer loop
    vertex 1.06638 1.0549 2.74642
    vertex 1.03379 1.08686 3.36968
    vertex 1.4171 0.491747 3.12472
  endloop
endfacet
facet normal 0.194105 0.980981 0.000436703
  outer loop
    vertex 0 1.5 2.5
    vertex 0.5722 1.38657 2.96243
    vertex 0.570839 1.38713 2.30735
  endloop
endfacet
facet normal 0.194445 0.980913 0
  outer loop
    vertex 0.5722 1.38657 2.96243
    vertex 0 1.5 2.5
    vertex 0 1.5 3.125
  endloop
endfacet
facet normal 0.177781 0.983953 -0.0152035
  outer loop
    vertex 0.495995 1.41562 4.0891
    vertex 0.541135 1.39899 3.54046
    vertex 0 1.5 3.75
  endloop
endfacet
facet normal 0.537824 0.842988 0.0107969
  outer loop
    vertex 0.5722 1.38657 2.96243
    vertex 0.541135 1.39899 3.54046
    vertex 1.03379 1.08686 3.36968
  endloop
endfacet
facet normal 0.183494 0.983021 0
  outer loop
    vertex 0.541135 1.39899 3.54046
    vertex 0 1.5 3.125
    vertex 0 1.5 3.75
  endloop
endfacet
facet normal 0.191483 0.981437 -0.0107904
  outer loop
    vertex 0.5722 1.38657 2.96243
    vertex 0 1.5 3.125
    vertex 0.541135 1.39899 3.54046
  endloop
endfacet
facet normal 0.194834 0.979495 0.0512827
  outer loop
    vertex 0.574025 1.38582 5
    vertex 0.422671 1.43922 4.55511
    vertex 0 1.5 5
  endloop
endfacet
facet normal 0.14234 0.989818 0
  outer loop
    vertex 0.422671 1.43922 4.55511
    vertex 0 1.5 4.375
    vertex 0 1.5 5
  endloop
endfacet
facet normal 0.477129 0.8783 0.0306032
  outer loop
    vertex 0.495995 1.41562 4.0891
    vertex 0.422671 1.43922 4.55511
    vertex 0.963177 1.14991 4.43125
  endloop
endfacet
facet normal 0.153108 0.987869 -0.0259273
  outer loop
    vertex 0.422671 1.43922 4.55511
    vertex 0.495995 1.41562 4.0891
    vertex 0 1.5 4.375
  endloop
endfacet
facet normal 0.555225 0.830954 0.0352286
  outer loop
    vertex 0.963177 1.14991 4.43125
    vertex 0.574025 1.38582 5
    vertex 1.06066 1.06066 5
  endloop
endfacet
facet normal 0.462189 0.885315 -0.0509773
  outer loop
    vertex 0.574025 1.38582 5
    vertex 0.963177 1.14991 4.43125
    vertex 0.422671 1.43922 4.55511
  endloop
endfacet
facet normal 0.483084 0.875342 0.0201754
  outer loop
    vertex 0.963177 1.14991 4.43125
    vertex 0.912046 1.19087 3.87836
    vertex 0.495995 1.41562 4.0891
  endloop
endfacet
facet normal 0.764882 0.642086 0.0517837
  outer loop
    vertex 1.03379 1.08686 3.36968
    vertex 0.912046 1.19087 3.87836
    vertex 1.33963 0.674821 3.96128
  endloop
endfacet
facet normal 0.771706 0.635516 -0.0242838
  outer loop
    vertex 0.912046 1.19087 3.87836
    vertex 0.963177 1.14991 4.43125
    vertex 1.33963 0.674821 3.96128
  endloop
endfacet
facet normal 0.480311 0.877003 0.0129298
  outer loop
    vertex 0.912046 1.19087 3.87836
    vertex 0.541135 1.39899 3.54046
    vertex 0.495995 1.41562 4.0891
  endloop
endfacet
facet normal 0.522356 0.851316 -0.0490453
  outer loop
    vertex 1.03379 1.08686 3.36968
    vertex 0.541135 1.39899 3.54046
    vertex 0.912046 1.19087 3.87836
  endloop
endfacet
facet normal 0.194697 0.978809 -0.0634536
  outer loop
    vertex 0.387483 1.44909 0.403587
    vertex 0.574025 1.38582 0
    vertex 0 1.5 0
  endloop
endfacet
facet normal 0.130271 0.991478 0
  outer loop
    vertex 0 1.5 0.625
    vertex 0.387483 1.44909 0.403587
    vertex 0 1.5 0
  endloop
endfacet
facet normal 0.399047 0.916021 0.0408421
  outer loop
    vertex 0.574025 1.38582 0
    vertex 0.387483 1.44909 0.403587
    vertex 0.814564 1.25956 0.481659
  endloop
endfacet
facet normal 0.149618 0.988137 0.0346254
  outer loop
    vertex 0.499761 1.4143 0.911275
    vertex 0.387483 1.44909 0.403587
    vertex 0 1.5 0.625
  endloop
endfacet
facet normal 0.409765 0.911757 -0.0281421
  outer loop
    vertex 0.499761 1.4143 0.911275
    vertex 0.814564 1.25956 0.481659
    vertex 0.387483 1.44909 0.403587
  endloop
endfacet
endsolid Created by Gmsh
